<?xml version="1.0" standalone="no"?>
<!DOCTYPE svg PUBLIC "-//W3C//DTD SVG 20010904//EN"
 "http://www.w3.org/TR/2001/REC-SVG-20010904/DTD/svg10.dtd">
<svg version="1.0" xmlns="http://www.w3.org/2000/svg"
 width="320.000000pt" height="320.000000pt" viewBox="0 0 320.000000 320.000000"
 preserveAspectRatio="xMidYMid meet">

<g transform="translate(0.000000,320.000000) scale(0.100000,-0.100000)"
fill="#000000" stroke="none">
<path d="M0 1600 l0 -1600 1600 0 1600 0 0 1600 0 1600 -1600 0 -1600 0 0
-1600z m748 299 c4 -31 -26 -70 -75 -98 -36 -21 -37 -21 -13 -1 58 48 81 75
78 94 -12 80 -235 -69 -302 -201 -56 -112 -20 -122 114 -32 50 34 94 59 98 55
4 -4 -3 -26 -15 -48 l-22 -40 27 17 c15 9 7 -2 -19 -27 -26 -24 -75 -84 -108
-135 -66 -97 -107 -135 -122 -112 -13 22 31 87 100 148 54 47 87 89 136 170
10 17 1 12 -66 -36 -57 -41 -128 -73 -146 -66 -20 8 -16 61 9 112 27 58 149
180 208 209 27 14 59 21 80 20 29 -3 35 -7 38 -29z m1682 13 c0 -5 -24 -49
-54 -98 -29 -49 -56 -105 -60 -125 -13 -75 -102 -169 -158 -169 -7 0 -37 -10
-66 -22 -49 -21 -53 -25 -48 -50 7 -37 -9 -36 -23 2 -5 17 -16 30 -24 30 -7 0
-24 12 -38 26 -68 72 17 270 145 336 57 30 135 30 174 1 l30 -22 58 49 c66 55
64 53 64 42z m-660 -47 c0 -8 -16 -27 -37 -42 -68 -52 -81 -70 -102 -138 -12
-38 -19 -70 -17 -72 2 -2 40 24 85 58 45 34 83 60 86 57 3 -2 -14 -18 -38 -35
-89 -65 -138 -114 -132 -134 4 -11 2 -19 -3 -19 -6 0 -12 5 -14 12 -3 7 -12 6
-31 -6 -41 -27 -67 -14 -67 35 0 55 31 111 86 156 26 21 74 62 107 91 62 54
77 62 77 37z m-930 -31 c0 -16 -28 -55 -76 -106 -37 -38 -54 -65 -54 -82 0
-36 11 -33 58 17 36 40 72 65 72 51 0 -3 -5 -14 -11 -26 -16 -30 -7 -31 31 -3
18 13 36 22 41 20 4 -3 17 8 29 25 19 27 50 45 35 20 -3 -5 3 -10 14 -10 15 0
21 -6 21 -21 0 -11 4 -18 9 -14 6 3 14 -2 19 -12 8 -14 13 -15 24 -5 8 6 17 9
20 6 3 -3 16 11 28 31 26 42 46 41 44 -2 l-2 -30 42 14 c22 8 47 19 53 25 17
14 18 -13 1 -30 -19 -19 6 -15 47 8 46 26 68 25 33 -1 -27 -20 -38 -49 -19
-49 5 0 24 12 41 26 17 15 33 24 36 22 2 -3 -14 -17 -36 -33 -45 -32 -75 -28
-65 7 6 19 5 21 -6 11 -7 -7 -21 -13 -30 -13 -9 0 -22 -7 -29 -15 -19 -23 -33
-18 -28 10 3 14 5 25 4 25 -89 -27 -109 -40 -147 -96 -48 -73 -52 -53 -4 22
42 65 43 69 10 48 -23 -15 -25 -15 -25 0 0 20 -24 21 -40 1 -19 -23 -22 -12
-5 21 26 51 -5 42 -57 -16 -44 -50 -66 -60 -33 -16 26 34 17 37 -24 10 -42
-27 -65 -25 -54 4 4 9 -12 -3 -34 -26 -73 -77 -104 -32 -46 67 40 69 113 143
113 115z m1938 -10 c-2 -8 -7 -15 -13 -15 -14 0 -55 -40 -55 -53 1 -6 12 3 25
19 14 17 25 26 25 20 0 -5 -22 -32 -50 -60 -30 -31 -52 -63 -56 -83 -9 -44 5
-41 55 13 23 25 48 45 56 45 8 0 15 5 15 10 0 6 7 10 15 10 22 0 19 -8 -12
-35 -41 -35 -20 -42 29 -10 24 16 37 21 29 11 -16 -19 -63 -46 -81 -46 -5 0
-10 9 -10 20 0 18 -6 14 -38 -20 -22 -22 -47 -40 -57 -40 -15 0 -17 6 -12 45
l7 45 -40 -26 c-48 -32 -66 -25 -44 17 8 17 18 29 21 26 2 -3 -1 -15 -7 -27
-16 -30 -8 -34 24 -9 14 11 33 22 41 23 8 1 26 20 41 42 49 74 100 117 92 78z
m-309 -86 c22 -6 20 -46 -2 -65 -20 -17 -20 -17 -13 2 31 78 1 74 -59 -8 -31
-42 -47 -42 -20 0 38 60 68 95 74 86 3 -6 12 -12 20 -15z m44 -47 c-4 -16 7
-14 29 6 10 9 18 11 18 5 0 -13 -40 -43 -50 -37 -13 8 -19 46 -7 42 7 -3 11
-10 10 -16z m-793 -341 c0 -5 -2 -10 -4 -10 -3 0 -8 5 -11 10 -3 6 -1 10 4 10
6 0 11 -4 11 -10z"/>
<path d="M489 1507 c-48 -42 -89 -99 -89 -123 1 -15 11 -8 43 27 35 39 95 129
85 129 -2 0 -19 -15 -39 -33z"/>
<path d="M2153 1848 c-103 -23 -225 -194 -206 -288 5 -29 37 -70 53 -70 5 0
16 24 24 53 26 89 104 175 218 240 43 25 47 39 16 55 -37 18 -61 20 -105 10z"/>
<path d="M2336 1836 c-22 -18 -27 -28 -21 -46 8 -25 12 -21 44 33 26 42 19 47
-23 13z"/>
<path d="M2217 1755 c-36 -25 -83 -61 -103 -81 -40 -40 -84 -125 -84 -163 0
-20 3 -22 28 -16 42 10 56 28 43 54 -14 25 -3 28 15 4 12 -17 16 -15 55 22 95
91 154 198 121 219 -5 3 -38 -15 -75 -39z"/>
<path d="M2266 1658 c-9 -13 -39 -46 -67 -75 -52 -53 -52 -65 0 -39 29 15 74
75 86 114 8 28 0 28 -19 0z"/>
<path d="M1588 1717 c-57 -52 -98 -153 -70 -171 11 -7 72 31 76 47 21 81 36
151 33 153 -2 2 -19 -11 -39 -29z"/>
<path d="M790 1785 c-13 -14 -21 -27 -18 -31 3 -3 16 9 28 25 26 37 22 40 -10
6z"/>
<path d="M1116 1714 c-9 -22 3 -32 14 -14 12 19 12 30 1 30 -5 0 -12 -7 -15
-16z"/>
<path d="M1197 1693 c-4 -3 -7 -11 -7 -17 0 -6 5 -5 12 2 6 6 9 14 7 17 -3 3
-9 2 -12 -2z"/>
</g>
</svg>
